<?xml version="1.0" encoding="utf-8"?>
<!-- Generator: Adobe Illustrator 15.1.0, SVG Export Plug-In . SVG Version: 6.00 Build 0)  -->
<!DOCTYPE svg PUBLIC "-//W3C//DTD SVG 1.1//EN" "http://www.w3.org/Graphics/SVG/1.1/DTD/svg11.dtd">
<svg version="1.1" id="Layer_1" xmlns="http://www.w3.org/2000/svg" xmlns:xlink="http://www.w3.org/1999/xlink" x="0px" y="0px"
	 width="218.781px" height="99px" viewBox="0 -9.897 218.781 99" enable-background="new 0 -9.897 218.781 99" xml:space="preserve"
	>
<polygon points="218.781,40.637 211.865,34.875 188.818,62.531 174.989,51.003 192.277,30.264 185.363,24.502 168.076,45.244 
	154.249,33.718 177.299,6.064 170.385,0.302 118.525,62.524 104.699,51 121.985,30.258 115.071,24.496 97.785,45.236 83.958,33.711 
	107.006,6.058 100.093,0.296 48.234,62.518 9,29.818 9,0 0,0 0,75.207 9,75.207 9,41.533 49.384,75.193 78.195,40.625 
	119.676,75.201 148.487,40.632 148.487,40.632 189.969,75.207 "/>
<rect x="18.355" y="16.078" transform="matrix(0.6402 -0.7682 0.7682 0.6402 -1.1096 38.7882)" width="44.999" height="9"/>
</svg>
